<?xml version="1.0" encoding="UTF-8"?>
<svg id="Capa_1" xmlns="http://www.w3.org/2000/svg" version="1.1" viewBox="0 0 3000 3000">
  <!-- Generator: Adobe Illustrator 29.3.0, SVG Export Plug-In . SVG Version: 2.1.0 Build 146)  -->
  <defs>
    <style>
      .st0 {
        fill: #1d1d1b;
      }
    </style>
  </defs>
  <path class="st0" d="M2095.05,2900H904.97c-115.93,0-209.92-93.97-209.92-209.92s93.99-209.92,209.92-209.92h1190.08c212.34,0,385.11-172.77,385.11-385.11s-172.77-385.15-385.11-385.15h-297.54c-115.95,0-209.92-93.97-209.92-209.9s93.97-209.92,209.92-209.92h297.54c443.86,0,804.95,361.11,804.95,804.97s-361.09,804.95-804.95,804.95Z"/>
  <path class="st0" d="M1202.48,1709.94h-297.52c-443.86,0-804.97-361.13-804.97-804.97S461.11,100,904.97,100h1190.08c115.95,0,209.92,93.99,209.92,209.92s-93.97,209.92-209.92,209.92H904.97c-212.36,0-385.13,172.77-385.13,385.13s172.77,385.11,385.13,385.11h297.52c115.93,0,209.92,93.99,209.92,209.92s-93.99,209.94-209.92,209.94Z"/>
  <circle class="st0" cx="309.92" cy="2690.1" r="209.9"/>
</svg>